<?xml version="1.0" encoding="UTF-8" standalone="no"?>
<!DOCTYPE svg PUBLIC "-//W3C//DTD SVG 1.1//EN"
 "http://www.w3.org/Graphics/SVG/1.1/DTD/svg11.dtd">
<!-- Generated by graphviz version 2.38.0 (20140413.2041)
 -->
<!-- Title: NumberSystem Pages: 1 -->
<svg width="676pt" height="332pt"
 viewBox="0.00 0.00 676.19 332.00" xmlns="http://www.w3.org/2000/svg" xmlns:xlink="http://www.w3.org/1999/xlink">
<g id="graph0" class="graph" transform="scale(1 1) rotate(0) translate(4 328)">
<title>NumberSystem</title>
<polygon fill="white" stroke="none" points="-4,4 -4,-328 672.193,-328 672.193,4 -4,4"/>
<!-- Number -->
<g id="node1" class="node"><title>Number</title>
<ellipse fill="none" stroke="black" cx="321.646" cy="-306" rx="40.0939" ry="18"/>
<text text-anchor="middle" x="321.646" y="-302.3" font-family="Times,serif" font-size="14.00">Number</text>
</g>
<!-- Real -->
<g id="node2" class="node"><title>Real</title>
<ellipse fill="none" stroke="black" cx="277.646" cy="-234" rx="27" ry="18"/>
<text text-anchor="middle" x="277.646" y="-230.3" font-family="Times,serif" font-size="14.00">Real</text>
</g>
<!-- Number&#45;&gt;Real -->
<g id="edge1" class="edge"><title>Number&#45;&gt;Real</title>
<path fill="none" stroke="black" d="M311.219,-288.411C305.827,-279.832 299.138,-269.191 293.153,-259.67"/>
<polygon fill="black" stroke="black" points="295.981,-257.592 287.696,-250.988 290.055,-261.317 295.981,-257.592"/>
</g>
<!-- Complex -->
<g id="node3" class="node"><title>Complex</title>
<ellipse fill="none" stroke="black" cx="366.646" cy="-234" rx="43.5923" ry="18"/>
<text text-anchor="middle" x="366.646" y="-230.3" font-family="Times,serif" font-size="14.00">Complex</text>
</g>
<!-- Number&#45;&gt;Complex -->
<g id="edge2" class="edge"><title>Number&#45;&gt;Complex</title>
<path fill="none" stroke="black" d="M332.311,-288.411C337.747,-279.955 344.472,-269.494 350.525,-260.078"/>
<polygon fill="black" stroke="black" points="353.595,-261.774 356.059,-251.47 347.707,-257.989 353.595,-261.774"/>
</g>
<!-- Rational -->
<g id="node4" class="node"><title>Rational</title>
<ellipse fill="none" stroke="black" cx="171.646" cy="-162" rx="40.0939" ry="18"/>
<text text-anchor="middle" x="171.646" y="-158.3" font-family="Times,serif" font-size="14.00">Rational</text>
</g>
<!-- Real&#45;&gt;Rational -->
<g id="edge3" class="edge"><title>Real&#45;&gt;Rational</title>
<path fill="none" stroke="black" d="M259.183,-220.807C243.309,-210.324 220.114,-195.007 201.588,-182.773"/>
<polygon fill="black" stroke="black" points="203.458,-179.814 193.185,-177.224 199.601,-185.655 203.458,-179.814"/>
</g>
<!-- Float -->
<g id="node5" class="node"><title>Float</title>
<ellipse fill="none" stroke="black" cx="384.646" cy="-162" rx="28.6953" ry="18"/>
<text text-anchor="middle" x="384.646" y="-158.3" font-family="Times,serif" font-size="14.00">Float</text>
</g>
<!-- Real&#45;&gt;Float -->
<g id="edge4" class="edge"><title>Real&#45;&gt;Float</title>
<path fill="none" stroke="black" d="M296.284,-220.807C313.032,-209.851 337.852,-193.613 356.926,-181.135"/>
<polygon fill="black" stroke="black" points="359.049,-183.928 365.502,-175.525 355.217,-178.07 359.049,-183.928"/>
</g>
<!-- Integer -->
<g id="node6" class="node"><title>Integer</title>
<ellipse fill="none" stroke="black" cx="87.6465" cy="-90" rx="35.9954" ry="18"/>
<text text-anchor="middle" x="87.6465" y="-86.3" font-family="Times,serif" font-size="14.00">Integer</text>
</g>
<!-- Rational&#45;&gt;Integer -->
<g id="edge5" class="edge"><title>Rational&#45;&gt;Integer</title>
<path fill="none" stroke="black" d="M153.42,-145.811C141.592,-135.955 126.014,-122.973 112.987,-112.117"/>
<polygon fill="black" stroke="black" points="115.185,-109.393 105.262,-105.68 110.704,-114.77 115.185,-109.393"/>
</g>
<!-- Ratio -->
<g id="node7" class="node"><title>Ratio</title>
<ellipse fill="none" stroke="black" cx="171.646" cy="-90" rx="29.795" ry="18"/>
<text text-anchor="middle" x="171.646" y="-86.3" font-family="Times,serif" font-size="14.00">Ratio</text>
</g>
<!-- Rational&#45;&gt;Ratio -->
<g id="edge6" class="edge"><title>Rational&#45;&gt;Ratio</title>
<path fill="none" stroke="black" d="M171.646,-143.697C171.646,-135.983 171.646,-126.712 171.646,-118.112"/>
<polygon fill="black" stroke="black" points="175.147,-118.104 171.646,-108.104 168.147,-118.104 175.147,-118.104"/>
</g>
<!-- ShortFloat -->
<g id="node10" class="node"><title>ShortFloat</title>
<ellipse fill="none" stroke="black" cx="267.646" cy="-90" rx="48.1917" ry="18"/>
<text text-anchor="middle" x="267.646" y="-86.3" font-family="Times,serif" font-size="14.00">ShortFloat</text>
</g>
<!-- Float&#45;&gt;ShortFloat -->
<g id="edge9" class="edge"><title>Float&#45;&gt;ShortFloat</title>
<path fill="none" stroke="black" d="M364.533,-148.967C347.004,-138.479 321.241,-123.065 300.688,-110.768"/>
<polygon fill="black" stroke="black" points="302.327,-107.671 291.949,-105.54 298.733,-113.678 302.327,-107.671"/>
</g>
<!-- SingleFloat -->
<g id="node11" class="node"><title>SingleFloat</title>
<ellipse fill="none" stroke="black" cx="384.646" cy="-90" rx="51.1914" ry="18"/>
<text text-anchor="middle" x="384.646" y="-86.3" font-family="Times,serif" font-size="14.00">SingleFloat</text>
</g>
<!-- Float&#45;&gt;SingleFloat -->
<g id="edge10" class="edge"><title>Float&#45;&gt;SingleFloat</title>
<path fill="none" stroke="black" d="M384.646,-143.697C384.646,-135.983 384.646,-126.712 384.646,-118.112"/>
<polygon fill="black" stroke="black" points="388.147,-118.104 384.646,-108.104 381.147,-118.104 388.147,-118.104"/>
</g>
<!-- DoubleFloat -->
<g id="node12" class="node"><title>DoubleFloat</title>
<ellipse fill="none" stroke="black" cx="508.646" cy="-90" rx="54.6905" ry="18"/>
<text text-anchor="middle" x="508.646" y="-86.3" font-family="Times,serif" font-size="14.00">DoubleFloat</text>
</g>
<!-- Float&#45;&gt;DoubleFloat -->
<g id="edge11" class="edge"><title>Float&#45;&gt;DoubleFloat</title>
<path fill="none" stroke="black" d="M405.401,-149.284C423.944,-138.816 451.494,-123.264 473.472,-110.857"/>
<polygon fill="black" stroke="black" points="475.213,-113.893 482.201,-105.929 471.772,-107.797 475.213,-113.893"/>
</g>
<!-- LongFlot -->
<g id="node13" class="node"><title>LongFlot</title>
<ellipse fill="none" stroke="black" cx="624.646" cy="-90" rx="43.5923" ry="18"/>
<text text-anchor="middle" x="624.646" y="-86.3" font-family="Times,serif" font-size="14.00">LongFlot</text>
</g>
<!-- Float&#45;&gt;LongFlot -->
<g id="edge12" class="edge"><title>Float&#45;&gt;LongFlot</title>
<path fill="none" stroke="black" d="M410.593,-154.048C446.95,-144.226 515.061,-125.522 572.646,-108 575.781,-107.046 579.016,-106.041 582.266,-105.015"/>
<polygon fill="black" stroke="black" points="583.522,-108.288 591.979,-101.907 581.388,-101.621 583.522,-108.288"/>
</g>
<!-- Bignum -->
<g id="node8" class="node"><title>Bignum</title>
<ellipse fill="none" stroke="black" cx="39.6465" cy="-18" rx="39.7935" ry="18"/>
<text text-anchor="middle" x="39.6465" y="-14.3" font-family="Times,serif" font-size="14.00">Bignum</text>
</g>
<!-- Integer&#45;&gt;Bignum -->
<g id="edge7" class="edge"><title>Integer&#45;&gt;Bignum</title>
<path fill="none" stroke="black" d="M76.5137,-72.7646C70.6614,-64.2301 63.36,-53.5822 56.8024,-44.0191"/>
<polygon fill="black" stroke="black" points="59.5941,-41.9013 51.0522,-35.6334 53.821,-45.8601 59.5941,-41.9013"/>
</g>
<!-- Fixnum -->
<g id="node9" class="node"><title>Fixnum</title>
<ellipse fill="none" stroke="black" cx="135.646" cy="-18" rx="38.1938" ry="18"/>
<text text-anchor="middle" x="135.646" y="-14.3" font-family="Times,serif" font-size="14.00">Fixnum</text>
</g>
<!-- Integer&#45;&gt;Fixnum -->
<g id="edge8" class="edge"><title>Integer&#45;&gt;Fixnum</title>
<path fill="none" stroke="black" d="M98.7793,-72.7646C104.632,-64.2301 111.933,-53.5822 118.491,-44.0191"/>
<polygon fill="black" stroke="black" points="121.472,-45.8601 124.241,-35.6334 115.699,-41.9013 121.472,-45.8601"/>
</g>
</g>
</svg>
